<?xml version="1.0" encoding="utf-8"?>
<!-- Generator: Adobe Illustrator 19.0.0, SVG Export Plug-In . SVG Version: 6.00 Build 0)  -->
<svg version="1.1" id="Layer_1" xmlns="http://www.w3.org/2000/svg" xmlns:xlink="http://www.w3.org/1999/xlink" x="0px" y="0px"
	 viewBox="0 0 500 264" style="enable-background:new 0 0 500 264;" xml:space="preserve">
<style type="text/css">
	.st0{fill:url(#SVGID_1_);}
	.st1{fill:#F33D95;}
	.st2{fill:#FFFFFF;}
	.st3{fill:#FEFEFD;}
	.st4{fill:#01C3E4;}
	.st5{fill:#FEE802;}
</style>
<radialGradient id="SVGID_1_" cx="442.8777" cy="54.3198" r="23.1105" gradientUnits="userSpaceOnUse">
	<stop  offset="0" style="stop-color:#FFFFFF"/>
	<stop  offset="1" style="stop-color:#CCECFC"/>
</radialGradient>
<circle class="st0" cx="442.9" cy="54.3" r="23.1"/>
<path class="st1" d="M233.7,115.7c-0.5-9.3-3.4-15.6-5.5-19c0,0,0-0.1,0.1-0.1c-0.3-0.4-0.7-0.9-1-1.3c-0.8-1.1-1.3-1.7-1.3-1.7l0,0
	c-3.4-4.2-7.2-8-11.6-11.1c-1.4-1-1.8-1.6-0.6-3.6c2.4-4.2,4-8.9,4.6-13.8c0.2-1.1,1.2-2.8-0.9-3.2c-1.8-0.3-2.6,0.7-2.9,2.5
	c-0.6,4-2.3,7.6-3.6,11.4c-0.8,2.3-1.9,2.9-4.3,1.6c-4.7-2.6-9.6-4.5-14.9-5.7c-15.9-3.5-31-0.9-45.5,6c-2.5,1.2-3.7,1-4.7-1.5
	c-1.1-2.6-2.3-5.2-3.3-7.8c-0.5-1.5-1.3-2.5-2.9-1.9c-1.9,0.6-1,2.1-0.6,3.3c1,2.9,1.8,6,3.5,8.6c1.8,2.6,0.7,3.3-1.3,4.7
	c-6.3,4.5-12.7,8.8-17.7,14.9c10.2,20.3,6.4,38.1-2.8,58.8c-1.7,4,3.2,11.2,4.2,14.5c0.8,1.3,1.5,2.7,2.2,4c1.3,1.2,2.5,1.9,3.7,2.9
	c10,7.8,21.4,11.7,33.6,14.9c2.3,0.6,2.8,1.7,2.6,3.7c-0.5,5.2-0.8,10.3-1.4,15.5c-0.4,3.4,0.3,6.3,2.5,8.7c1.7,1.8,3.9,2,6.2,1.2
	c1.3-0.5,1.8-1.4,2-2.7c0.3-2.5-1.3-3.5-3.2-4.1c-2.4-0.7-2.8-2.4-2.7-4.5c0.1-1.9,0.3-3.9,0.4-5.8c0.5-10.5,0.5-10.4,11.1-9.5
	c2.3,0.2,3.1,0.9,3.1,3.2c-0.1,4.3,0.2,8.6,0.1,12.9c-0.1,3.2,1.1,5.8,3.3,7.9c1.3,1.2,2.7,2.5,4.7,1.5c1.2-0.6,2.4-1.3,2.4-2.9
	c0-2-1.1-3.4-2.9-4.1c-2.1-0.9-3.3-2.3-3.3-4.7c0-3.9-0.1-7.7-0.3-11.6c-0.1-1.7,0.1-2.6,1.9-2.8c11.2-1,20.8-5.8,29.6-12.3
	c0,0,0-0.1,0-0.1c4.3-4.2,5.4-5.6,12-15.4C234.9,157.2,234.5,130.6,233.7,115.7z M163.2,121.1c-0.1,1.7-0.7,3.6-2.6,3.6
	c-1.9,0-2.7-1.7-2.7-3.4s1-3,2.9-3.2C162.7,118.4,163.4,119.6,163.2,121.1z M185.8,142c-2.1,2.3-5,2.2-7.3,2.6
	c-2-0.1-4.2,0.2-4.5-1.7c-0.3-2.3,2.3-1.8,3.6-2.2c2.6-0.8,5.4-1.9,8,0.1C185.9,141,186,141.8,185.8,142z M193.7,123.4
	c-2.1,0-2.8-1.4-2.9-3.2c-0.2-1.8,0.6-2.8,2.5-3.1c2.1,0.2,2.4,1.8,2.5,3.5C195.9,122.1,195.4,123.3,193.7,123.4z"/>
<path d="M448.6,69.7c-1,0.2-2.3,0.2-4,0.6c-2.1,0.6-2.5,5.1-2.5,5.1c0.2,1.8,0.4,3.6-0.9,5.3c-2,2.6-4,5.2-5.7,7.9
	c-1.4,2.2-2.5,1.9-4,0.1c-2.1-2.5-4.4-4.8-7.2-6.6c-13.2-8.8-27.6-11.7-43.3-9.7c-18.5,2.3-33.7,10.4-45.9,24.2l0,0
	c0,0,0,0.1-0.1,0.1c-0.3,0.4-0.6,0.7-0.9,1.1c0,0.1,0.1,0.2,0.1,0.2c-1.2,2-3.4,6.2-5.4,12.7c-3,9.6-5.7,28.5-2.7,41.1
	c3,12.6,7.2,18.6,12.1,22.9c0,0,0,0,0,0c9.2,9.2,20.6,14.5,33.4,17.2c2.6,0.5,3.4,1.5,3.3,4.1c-0.2,6.2,0,12.5-0.1,18.7
	c-0.1,3,1.3,4.8,3.7,6c2.1,1.1,4.4,1.9,5.7-0.9s-0.5-4.2-2.9-4.8c-1.7-0.4-3-0.7-2.9-3c0.2-4.7,0-9.5,0.4-14.3
	c0-0.3,0.1-0.6,0.1-0.9c0.2-1.3,1-3.2,3.4-3.5c0.5,0,1,0,1.4-0.1c0.7,0,2.2,0,5.3,0.1c1.4,0,2.3,0.1,2.9,0.7
	c0.7,0.6,0.8,1.7,0.8,3.2c-0.1,5.2,0.2,10.4,0.8,15.6c0.4,3.6,2.7,5.5,5.6,6.9c2,0.9,3.5-0.1,4.4-1.9c1-1.9,0-3.8-1.6-4
	c-5.3-0.7-5-4.5-5.2-8.1c-0.2-2.8-0.4-5.6-0.4-8.5c0-0.5,0-1-0.1-1.4c0.2-1.2,0.8-2.4,2.5-3.1c21.4-4.3,36.9-16.5,45.6-36.9
	c9-20.8,3.3-40.1-7.1-58.9l1.9-5.5c1.4-2.8,3-5.5,4.6-8.2c0.5-0.8,0.4-2.1,2-1.8c4.2,0.7,4.3-2.5,4.8-5.3
	C450.9,73.6,449.7,71.7,448.6,69.7z M373.3,110.7c-2.1,0-2.5-2-2.8-3.5c-0.4-1.8,0.7-2.8,2.5-2.8c1.9,0,2.5,1.3,2.5,3.2
	C375.4,109,375.3,110.7,373.3,110.7z M391.8,125.3c-1.4,0.2-3,0.7-2.7-0.8c0.4-2.2,2.8-2.4,4.6-2.7c1.3-0.2,3.4,0.3,3.2,1.6
	C396.3,126.4,393.1,124.1,391.8,125.3z M404.7,105.8c-1.8-0.3-2.4-1.6-2.5-3.2c-0.1-1.6,0.1-3.1,2.1-3.3c1.6-0.1,2.4,0.8,2.5,2.5
	C406.8,103.5,406.6,105,404.7,105.8z"/>
<path id="XMLID_157_" class="st1" d="M226.6,54.1c-0.1,4.3-2.7,6-6.4,6.1c-3.4,0.2-5.8-1.2-6-5c-0.2-2.9,4-7.3,7.1-7.1
	C225,48.2,225.9,51.1,226.6,54.1z"/>
<path id="XMLID_156_" class="st1" d="M132.6,63.6c-4.2-0.2-5.8-2.3-5.8-5.6c0-3.4,1.6-5.5,5.3-5c3.1,0.5,7.1,0.7,6.9,4.9
	C139,61.7,135.6,63.2,132.6,63.6z"/>
<path id="XMLID_154_" class="st2" d="M443.5,47c-0.2,7.7,7.9,9.8,3.5,16c-1.4,1.9-3.9,1.9-5.3,0C438.2,58.6,438,54.2,443.5,47z"/>
<path id="XMLID_152_" class="st3" d="M308.2,152.6c-5.1,2.9-10.4,3.9-15.8,0.6C297.7,152.8,303,153.5,308.2,152.6z"/>
<path id="XMLID_151_" class="st3" d="M272.2,153.1c-6.1,3.1-11.1,2.9-16.3,0C261,153.1,266,153.1,272.2,153.1z"/>
<path id="XMLID_150_" class="st3" d="M276,170.1c3.5-2.9,6-3.9,8.9-2c0.4,0.3,0.6,1,0.6,1.5c0,0.2-0.9,0.7-1,0.6
	C282.3,167.9,279.7,169.4,276,170.1z"/>
<path id="XMLID_149_" class="st3" d="M59.2,116c-3,3.7-11.1,6.3-14.9,5.2c-0.7-0.2-1.5-0.5-1.5-1.3c0-1,0.8-1.1,1.6-1.2
	C49.2,118.4,54,117.5,59.2,116z"/>
<path id="XMLID_148_" class="st3" d="M96.9,109.5c-4.2,4.1-9.3,5.4-14.9,4.8c-0.5-0.1-1.2-0.6-1.3-1c-0.2-0.9,0.6-1.4,1.3-1.3
	C87.1,112.2,91.9,110.5,96.9,109.5z"/>
<path id="XMLID_147_" class="st3" d="M79,133.1c-3,3-6.6,4.8-10.4,6.2c-0.7,0.2-1.8,0.7-2.2-0.5c-0.3-0.9,0.6-1.3,1.2-1.6
	C71.1,135,74.9,133.7,79,133.1z"/>
<path id="XMLID_146_" class="st3" d="M375.5,107.7c0,1.3-0.2,3-2.2,3c-2.1,0-2.5-2-2.8-3.5c-0.4-1.8,0.7-2.8,2.5-2.8
	C374.9,104.5,375.5,105.8,375.5,107.7z"/>
<path id="XMLID_145_" class="st3" d="M391.8,125.3c-1.4,0.2-3,0.7-2.7-0.8c0.4-2.2,2.8-2.4,4.6-2.7c1.3-0.2,3.4,0.3,3.2,1.6
	C396.3,126.4,393.1,124.1,391.8,125.3z"/>
<path id="XMLID_144_" class="st3" d="M404.7,105.8c-1.8-0.3-2.4-1.6-2.5-3.2s0.1-3.1,2.1-3.3c1.6-0.1,2.4,0.8,2.5,2.5
	C406.8,103.5,406.6,105,404.7,105.8z"/>
<path id="XMLID_143_" class="st3" d="M178.5,144.6c-2-0.1-4.2,0.2-4.5-1.7c-0.3-2.4,2.2-1.8,3.6-2.2c2.6-0.8,5.4-1.8,8,0.1
	c0.2,0.2,0.4,1,0.2,1.2C183.7,144.3,180.8,144.2,178.5,144.6z"/>
<path id="XMLID_142_" class="st3" d="M160.8,118.1c1.9,0.2,2.6,1.5,2.4,3.1c-0.2,1.6-0.7,3.5-2.6,3.6c-1.9,0-2.7-1.7-2.7-3.4
	C157.9,119.6,158.9,118.3,160.8,118.1z"/>
<path id="XMLID_141_" class="st3" d="M193.3,117.1c2.1,0.2,2.4,1.8,2.5,3.5c0.1,1.5-0.4,2.7-2.1,2.8c-2.1,0.1-2.8-1.4-2.9-3.2
	C190.6,118.5,191.4,117.4,193.3,117.1z"/>
<path id="XMLID_8_" d="M446,68.2c0.7-0.1,1.3,0,1.8,0.1c-0.3-0.7-0.5-1.4-0.7-2.1c-0.3-1.6-4.3-0.8-4.8,1.2
	c-0.2,0.7-0.2,1.5-0.2,2.2C443.2,68.9,444.6,68.3,446,68.2z"/>
<path class="st4" d="M122.8,175c-0.5-0.7-0.9-1.5-1.3-2.3c-1.4-2.6-3.3-9-1.8-11.9c1.5-2.9,12-35.9,6.4-48.9
	c-2.9-6.6-5.7-11.7-7.7-15.1c-0.3-0.7-0.6-1.5-1.1-2.1c-0.7-1-1.4-1.9-2.1-2.8c0,0,0-0.1,0-0.1l0,0C102.6,76.6,85.5,71.3,66,71.9
	C54,72.2,43,76.2,33.1,83c-2.9,2-3.1,1.1-4-2c-1.1-3.6-1.5-4.2-1-7.6c0.3-2.3,0-2.9,1.6-4.1c2.7-1.9,5-5.4,1.4-8.7
	c-0.8-0.7-0.8-1.5-0.5-2.4c0.3-1.2,1-3-0.5-3.4c-1.7-0.4-1.9,1.5-2,2.8C28,59.1,28,59.7,26.6,60c-1.6,0.2-2.4,0.1-3,0.8
	c-1.9,2.1-2.4,4.8-1.5,6.9c0.1,0.2,0.2,0.7,0.4,0.8c5.2,2.9,2.4,7.3,3,11.4c0.2,1.8,0.3,3.7,0.8,5.2c0.8,2.2,0.6,2.3-0.4,3.1
	c-6.6,5.6-12.5,11.8-17,19.3c-13.1,21.7-11.6,47.8,4.1,65.6c8.4,9.5,19.3,15.3,31.6,18c3.9,0.8,5,2.3,4.4,6.2
	c-0.9,5.2-0.9,10.4-1.4,15.6c-0.3,3.4,1.4,5.8,3.7,7.7c1.8,1.5,4.3,2,5.8-0.5c1.3-2.2,0.2-4.5-2.1-5c-3.5-0.9-3.3-3.3-3.2-5.8
	c0.3-5.4,0.7-10.8,1.1-16.2c4.3,0,8.6,0.2,12.9,0c2.5-0.1,3.3,0.8,3.4,3.3c0.1,4.9,0.8,9.8,0.8,14.7c0,3.8,1.9,6,4.9,7.8
	c2.4,1.4,4.5,1,5.5-1.5s-0.7-4.3-2.9-4.5c-3.4-0.2-3.8-2-3.9-4.7c-0.1-3.6-0.5-7.1-0.7-10.7c-0.1-1.5,0.1-3.2-2.2-4.3
	c19.2-3,35.1-10.1,45.5-26.5c0.3,1.1,0.5,2.6,0.8,4.8c0.1,0.6,0.2,1.1,0.3,1.5c0,1.3,0,2.6-0.2,3.9c-0.5,2.4,1,4.3,3.2,5.3
	c1.2,0.6,2.7,1.2,3.6-0.2c1.3-2,0.5-4-0.6-5.8C123.1,175.8,123,175.4,122.8,175z M44.3,121.3c-0.7-0.2-1.5-0.5-1.5-1.3
	c0-1,0.9-1.1,1.6-1.2c4.8-0.4,9.6-1.3,14.8-2.8C56.2,119.7,48.1,122.3,44.3,121.3z M68.5,139.2c-0.7,0.3-1.8,0.7-2.2-0.5
	c-0.2-0.8,0.6-1.2,1.2-1.6c3.6-2.1,7.4-3.4,11.5-4C76,136.1,72.4,137.9,68.5,139.2z M82,114.2c-0.5-0.1-1.2-0.6-1.3-1
	c-0.2-0.9,0.5-1.3,1.3-1.3c5.1,0.3,9.9-1.4,14.9-2.4C92.7,113.6,87.6,114.8,82,114.2z"/>
<path class="st5" d="M339.7,160c5.1-11.5,4.2-23.5,2.2-35.5c-1-6.5-2.9-12.7-5.1-18.8c-0.5-1.1-4.4-9.7-10.5-16.1l0,0
	c-0.2-0.2-0.5-0.4-0.9-0.7c-18.9-14.5-39.7-21.8-63.6-14.7c-13.4,4-24.4,11.9-33.6,22.4c-5.8,8.5-11,17.3-13.5,27.4
	c-2.8,11-0.9,21.5,3.2,31.8c3.4,8.4-1.5,26.1-1.7,26.9c-0.5,3.4,1.9,5.7,4.1,4.8c2.4-0.9,3.8-4.2,2.6-6.9c-0.7-1.8-1-11.1,0.3-11.4
	c1.8-0.5,2.4,1,3.1,2.3c9.7,11.7,22,19.7,36.6,24c2.3,0.7,2.7,1.6,2.5,3.7c-0.4,4.4-0.7,8.9-0.9,13.3c-0.3,3.9,1.7,6.6,5,8.3
	c1.5,0.8,4,1.6,4.8-1.1c0.7-2.1-0.3-4-2.6-4.3c-2.9-0.3-3.1-2-3-4.3c0.1-2.8,0.4-5.6,0.4-8.5c0.1-1,0.6-4.1,2.5-4.9
	c3.9-0.3,8-0.9,10.9,0.6c2.7,1.4,0.6,13.5,0.5,14.1c-0.3,3.4,2.8,4.9,5.2,6.7c1.9,1.4,4.1,1.6,5.4-0.6c1.3-2.3-0.7-4-2.5-4.3
	c-3.4-0.5-3.7-2.8-3.9-5.3c-0.1-2-0.4-4-0.3-6c0.1-0.5,0.1-1,0.1-1.6c0.1-3.9,2.5-4.3,3.8-4.7c15.8-2.5,29.4-8.6,39.5-21
	c0.1,0.4,0.3,1,0.4,1.9c0.5,4.1-0.2,12.2-0.7,14.7c-0.5,2.4,1.2,4.7,4.4,3.1c3.2-1.6,2.9-7.7,1.8-13.1c-0.9-4.1-2.4-7.5-3.3-9.9
	c0.4-0.5,0.8-1.1,1.1-1.6C336,167,338.1,163.6,339.7,160z M255.9,153c4.8-1.2,10.2-0.4,16.3,0C265.4,157.8,260.5,157.5,255.9,153z
	 M284.6,170.2c-2.3-2.3-4.9-0.7-8.6-0.1c3.5-2.9,6-3.9,8.9-2c0.4,0.3,0.6,1,0.6,1.5C285.6,169.7,284.7,170.2,284.6,170.2z
	 M292.5,153.1c3.2-1.1,12.3-2,15.8-0.6C302.8,157,297.6,158.2,292.5,153.1z"/>
</svg>
