<?xml version="1.0" encoding="utf-8"?>
<!-- Generator: Adobe Illustrator 19.0.0, SVG Export Plug-In . SVG Version: 6.00 Build 0)  -->
<svg version="1.1" id="Layer_1" xmlns="http://www.w3.org/2000/svg" xmlns:xlink="http://www.w3.org/1999/xlink" x="0px" y="0px"
	 viewBox="-170 166.3 500 264" style="enable-background:new -170 166.3 500 264;" xml:space="preserve">
<style type="text/css">
	.st0{fill:url(#SVGID_1_);}
	.st1{fill:#F33D95;}
	.st2{fill:#FFFFFF;}
	.st3{fill:#FEFEFD;}
	.st4{fill:#01C3E4;}
	.st5{fill:#FEE802;}
</style>
<radialGradient id="SVGID_1_" cx="272.9" cy="348.9205" r="23.1" gradientTransform="matrix(1 0 0 -1 0 597.84)" gradientUnits="userSpaceOnUse">
	<stop  offset="0" style="stop-color:#FFFFFF"/>
	<stop  offset="1" style="stop-color:#CCECFC"/>
</radialGradient>
<circle class="st0" cx="272.9" cy="248.9" r="23.1"/>
<path class="st1" d="M63.7,310.3c-0.5-9.3-3.4-15.6-5.5-19c0,0,0-0.1,0.1-0.1c-0.3-0.4-0.7-0.9-1-1.3c-0.8-1.1-1.3-1.7-1.3-1.7l0,0
	c-3.4-4.2-7.2-8-11.6-11.1c-1.4-1-1.8-1.6-0.6-3.6c2.4-4.2,4-8.9,4.6-13.8c0.2-1.1,1.2-2.8-0.9-3.2c-1.8-0.3-2.6,0.7-2.9,2.5
	c-0.6,4-2.3,7.6-3.6,11.4c-0.8,2.3-1.9,2.9-4.3,1.6c-4.7-2.6-9.6-4.5-14.9-5.7c-15.9-3.5-31-0.9-45.5,6c-2.5,1.2-3.7,1-4.7-1.5
	c-1.1-2.6-2.3-5.2-3.3-7.8c-0.5-1.5-1.3-2.5-2.9-1.9c-1.9,0.6-1,2.1-0.6,3.3c1,2.9,1.8,6,3.5,8.6c1.8,2.6,0.7,3.3-1.3,4.7
	c-6.3,4.5-12.7,8.8-17.7,14.9c10.2,20.3,6.4,38.1-2.8,58.8c-1.7,4,3.2,11.2,4.2,14.5c0.8,1.3,1.5,2.7,2.2,4c1.3,1.2,2.5,1.9,3.7,2.9
	c10,7.8,21.4,11.7,33.6,14.9c2.3,0.6,2.8,1.7,2.6,3.7c-0.5,5.2-0.8,10.3-1.4,15.5c-0.4,3.4,0.3,6.3,2.5,8.7c1.7,1.8,3.9,2,6.2,1.2
	c1.3-0.5,1.8-1.4,2-2.7c0.3-2.5-1.3-3.5-3.2-4.1c-2.4-0.7-2.8-2.4-2.7-4.5c0.1-1.9,0.3-3.9,0.4-5.8c0.5-10.5,0.5-10.4,11.1-9.5
	c2.3,0.2,3.1,0.9,3.1,3.2c-0.1,4.3,0.2,8.6,0.1,12.9c-0.1,3.2,1.1,5.8,3.3,7.9c1.3,1.2,2.7,2.5,4.7,1.5c1.2-0.6,2.4-1.3,2.4-2.9
	c0-2-1.1-3.4-2.9-4.1c-2.1-0.9-3.3-2.3-3.3-4.7c0-3.9-0.1-7.7-0.3-11.6c-0.1-1.7,0.1-2.6,1.9-2.8c11.2-1,20.8-5.8,29.6-12.3v-0.1
	c4.3-4.2,5.4-5.6,12-15.4C64.9,351.8,64.5,325.2,63.7,310.3z M-6.8,315.7c-0.1,1.7-0.7,3.6-2.6,3.6c-1.9,0-2.7-1.7-2.7-3.4
	s1-3,2.9-3.2C-7.3,313-6.6,314.2-6.8,315.7z M15.8,336.6c-2.1,2.3-5,2.2-7.3,2.6c-2-0.1-4.2,0.2-4.5-1.7c-0.3-2.3,2.3-1.8,3.6-2.2
	c2.6-0.8,5.4-1.9,8,0.1C15.9,335.6,16,336.4,15.8,336.6z M23.7,318c-2.1,0-2.8-1.4-2.9-3.2c-0.2-1.8,0.6-2.8,2.5-3.1
	c2.1,0.2,2.4,1.8,2.5,3.5C25.9,316.7,25.4,317.9,23.7,318z"/>
<path d="M278.6,264.3c-1,0.2-2.3,0.2-4,0.6c-2.1,0.6-2.5,5.1-2.5,5.1c0.2,1.8,0.4,3.6-0.9,5.3c-2,2.6-4,5.2-5.7,7.9
	c-1.4,2.2-2.5,1.9-4,0.1c-2.1-2.5-4.4-4.8-7.2-6.6c-13.2-8.8-27.6-11.7-43.3-9.7c-18.5,2.3-33.7,10.4-45.9,24.2l0,0
	c0,0,0,0.1-0.1,0.1c-0.3,0.4-0.6,0.7-0.9,1.1c0,0.1,0.1,0.2,0.1,0.2c-1.2,2-3.4,6.2-5.4,12.7c-3,9.6-5.7,28.5-2.7,41.1
	s7.2,18.6,12.1,22.9l0,0c9.2,9.2,20.6,14.5,33.4,17.2c2.6,0.5,3.4,1.5,3.3,4.1c-0.2,6.2,0,12.5-0.1,18.7c-0.1,3,1.3,4.8,3.7,6
	c2.1,1.1,4.4,1.9,5.7-0.9s-0.5-4.2-2.9-4.8c-1.7-0.4-3-0.7-2.9-3c0.2-4.7,0-9.5,0.4-14.3c0-0.3,0.1-0.6,0.1-0.9
	c0.2-1.3,1-3.2,3.4-3.5c0.5,0,1,0,1.4-0.1c0.7,0,2.2,0,5.3,0.1c1.4,0,2.3,0.1,2.9,0.7c0.7,0.6,0.8,1.7,0.8,3.2
	c-0.1,5.2,0.2,10.4,0.8,15.6c0.4,3.6,2.7,5.5,5.6,6.9c2,0.9,3.5-0.1,4.4-1.9c1-1.9,0-3.8-1.6-4c-5.3-0.7-5-4.5-5.2-8.1
	c-0.2-2.8-0.4-5.6-0.4-8.5c0-0.5,0-1-0.1-1.4c0.2-1.2,0.8-2.4,2.5-3.1c21.4-4.3,36.9-16.5,45.6-36.9c9-20.8,3.3-40.1-7.1-58.9
	l1.9-5.5c1.4-2.8,3-5.5,4.6-8.2c0.5-0.8,0.4-2.1,2-1.8c4.2,0.7,4.3-2.5,4.8-5.3C280.9,268.2,279.7,266.3,278.6,264.3z M203.3,305.3
	c-2.1,0-2.5-2-2.8-3.5c-0.4-1.8,0.7-2.8,2.5-2.8c1.9,0,2.5,1.3,2.5,3.2C205.4,303.6,205.3,305.3,203.3,305.3z M221.8,319.9
	c-1.4,0.2-3,0.7-2.7-0.8c0.4-2.2,2.8-2.4,4.6-2.7c1.3-0.2,3.4,0.3,3.2,1.6C226.3,321,223.1,318.7,221.8,319.9z M234.7,300.4
	c-1.8-0.3-2.4-1.6-2.5-3.2s0.1-3.1,2.1-3.3c1.6-0.1,2.4,0.8,2.5,2.5C236.8,298.1,236.6,299.6,234.7,300.4z"/>
<path id="XMLID_157_" class="st1" d="M56.6,248.7c-0.1,4.3-2.7,6-6.4,6.1c-3.4,0.2-5.8-1.2-6-5c-0.2-2.9,4-7.3,7.1-7.1
	C55,242.8,55.9,245.7,56.6,248.7z"/>
<path id="XMLID_156_" class="st1" d="M-37.4,258.2c-4.2-0.2-5.8-2.3-5.8-5.6c0-3.4,1.6-5.5,5.3-5c3.1,0.5,7.1,0.7,6.9,4.9
	C-31,256.3-34.4,257.8-37.4,258.2z"/>
<path id="XMLID_154_" class="st2" d="M273.5,241.6c-0.2,7.7,7.9,9.8,3.5,16c-1.4,1.9-3.9,1.9-5.3,0
	C268.2,253.2,268,248.8,273.5,241.6z"/>
<path id="XMLID_152_" class="st3" d="M138.2,347.2c-5.1,2.9-10.4,3.9-15.8,0.6C127.7,347.4,133,348.1,138.2,347.2z"/>
<path id="XMLID_151_" class="st3" d="M102.2,347.7c-6.1,3.1-11.1,2.9-16.3,0C91,347.7,96,347.7,102.2,347.7z"/>
<path id="XMLID_150_" class="st3" d="M106,364.7c3.5-2.9,6-3.9,8.9-2c0.4,0.3,0.6,1,0.6,1.5c0,0.2-0.9,0.7-1,0.6
	C112.3,362.5,109.7,364,106,364.7z"/>
<path id="XMLID_149_" class="st3" d="M-110.8,310.6c-3,3.7-11.1,6.3-14.9,5.2c-0.7-0.2-1.5-0.5-1.5-1.3c0-1,0.8-1.1,1.6-1.2
	C-120.8,313-116,312.1-110.8,310.6z"/>
<path id="XMLID_148_" class="st3" d="M-73.1,304.1c-4.2,4.1-9.3,5.4-14.9,4.8c-0.5-0.1-1.2-0.6-1.3-1c-0.2-0.9,0.6-1.4,1.3-1.3
	C-82.9,306.8-78.1,305.1-73.1,304.1z"/>
<path id="XMLID_147_" class="st3" d="M-91,327.7c-3,3-6.6,4.8-10.4,6.2c-0.7,0.2-1.8,0.7-2.2-0.5c-0.3-0.9,0.6-1.3,1.2-1.6
	C-98.9,329.6-95.1,328.3-91,327.7z"/>
<path id="XMLID_146_" class="st3" d="M205.5,302.3c0,1.3-0.2,3-2.2,3c-2.1,0-2.5-2-2.8-3.5c-0.4-1.8,0.7-2.8,2.5-2.8
	C204.9,299.1,205.5,300.4,205.5,302.3z"/>
<path id="XMLID_145_" class="st3" d="M221.8,319.9c-1.4,0.2-3,0.7-2.7-0.8c0.4-2.2,2.8-2.4,4.6-2.7c1.3-0.2,3.4,0.3,3.2,1.6
	C226.3,321,223.1,318.7,221.8,319.9z"/>
<path id="XMLID_144_" class="st3" d="M234.7,300.4c-1.8-0.3-2.4-1.6-2.5-3.2s0.1-3.1,2.1-3.3c1.6-0.1,2.4,0.8,2.5,2.5
	C236.8,298.1,236.6,299.6,234.7,300.4z"/>
<path id="XMLID_143_" class="st3" d="M8.5,339.2c-2-0.1-4.2,0.2-4.5-1.7c-0.3-2.4,2.2-1.8,3.6-2.2c2.6-0.8,5.4-1.8,8,0.1
	c0.2,0.2,0.4,1,0.2,1.2C13.7,338.9,10.8,338.8,8.5,339.2z"/>
<path id="XMLID_142_" class="st3" d="M-9.2,312.7c1.9,0.2,2.6,1.5,2.4,3.1c-0.2,1.6-0.7,3.5-2.6,3.6c-1.9,0-2.7-1.7-2.7-3.4
	C-12.1,314.2-11.1,312.9-9.2,312.7z"/>
<path id="XMLID_141_" class="st3" d="M23.3,311.7c2.1,0.2,2.4,1.8,2.5,3.5c0.1,1.5-0.4,2.7-2.1,2.8c-2.1,0.1-2.8-1.4-2.9-3.2
	C20.6,313.1,21.4,312,23.3,311.7z"/>
<path id="XMLID_8_" d="M276,262.8c0.7-0.1,1.3,0,1.8,0.1c-0.3-0.7-0.5-1.4-0.7-2.1c-0.3-1.6-4.3-0.8-4.8,1.2
	c-0.2,0.7-0.2,1.5-0.2,2.2C273.2,263.5,274.6,262.9,276,262.8z"/>
<path class="st4" d="M-47.2,369.6c-0.5-0.7-0.9-1.5-1.3-2.3c-1.4-2.6-3.3-9-1.8-11.9s12-35.9,6.4-48.9c-2.9-6.6-5.7-11.7-7.7-15.1
	c-0.3-0.7-0.6-1.5-1.1-2.1c-0.7-1-1.4-1.9-2.1-2.8v-0.1l0,0c-12.6-15.2-29.7-20.5-49.2-19.9c-12,0.3-23,4.3-32.9,11.1
	c-2.9,2-3.1,1.1-4-2c-1.1-3.6-1.5-4.2-1-7.6c0.3-2.3,0-2.9,1.6-4.1c2.7-1.9,5-5.4,1.4-8.7c-0.8-0.7-0.8-1.5-0.5-2.4
	c0.3-1.2,1-3-0.5-3.4c-1.7-0.4-1.9,1.5-2,2.8c-0.1,1.5-0.1,2.1-1.5,2.4c-1.6,0.2-2.4,0.1-3,0.8c-1.9,2.1-2.4,4.8-1.5,6.9
	c0.1,0.2,0.2,0.7,0.4,0.8c5.2,2.9,2.4,7.3,3,11.4c0.2,1.8,0.3,3.7,0.8,5.2c0.8,2.2,0.6,2.3-0.4,3.1c-6.6,5.6-12.5,11.8-17,19.3
	c-13.1,21.7-11.6,47.8,4.1,65.6c8.4,9.5,19.3,15.3,31.6,18c3.9,0.8,5,2.3,4.4,6.2c-0.9,5.2-0.9,10.4-1.4,15.6
	c-0.3,3.4,1.4,5.8,3.7,7.7c1.8,1.5,4.3,2,5.8-0.5c1.3-2.2,0.2-4.5-2.1-5c-3.5-0.9-3.3-3.3-3.2-5.8c0.3-5.4,0.7-10.8,1.1-16.2
	c4.3,0,8.6,0.2,12.9,0c2.5-0.1,3.3,0.8,3.4,3.3c0.1,4.9,0.8,9.8,0.8,14.7c0,3.8,1.9,6,4.9,7.8c2.4,1.4,4.5,1,5.5-1.5
	s-0.7-4.3-2.9-4.5c-3.4-0.2-3.8-2-3.9-4.7c-0.1-3.6-0.5-7.1-0.7-10.7c-0.1-1.5,0.1-3.2-2.2-4.3c19.2-3,35.1-10.1,45.5-26.5
	c0.3,1.1,0.5,2.6,0.8,4.8c0.1,0.6,0.2,1.1,0.3,1.5c0,1.3,0,2.6-0.2,3.9c-0.5,2.4,1,4.3,3.2,5.3c1.2,0.6,2.7,1.2,3.6-0.2
	c1.3-2,0.5-4-0.6-5.8C-46.9,370.4-47,370-47.2,369.6z M-125.7,315.9c-0.7-0.2-1.5-0.5-1.5-1.3c0-1,0.9-1.1,1.6-1.2
	c4.8-0.4,9.6-1.3,14.8-2.8C-113.8,314.3-121.9,316.9-125.7,315.9z M-101.5,333.8c-0.7,0.3-1.8,0.7-2.2-0.5c-0.2-0.8,0.6-1.2,1.2-1.6
	c3.6-2.1,7.4-3.4,11.5-4C-94,330.7-97.6,332.5-101.5,333.8z M-88,308.8c-0.5-0.1-1.2-0.6-1.3-1c-0.2-0.9,0.5-1.3,1.3-1.3
	c5.1,0.3,9.9-1.4,14.9-2.4C-77.3,308.2-82.4,309.4-88,308.8z"/>
<path class="st5" d="M169.7,354.6c5.1-11.5,4.2-23.5,2.2-35.5c-1-6.5-2.9-12.7-5.1-18.8c-0.5-1.1-4.4-9.7-10.5-16.1l0,0
	c-0.2-0.2-0.5-0.4-0.9-0.7c-18.9-14.5-39.7-21.8-63.6-14.7c-13.4,4-24.4,11.9-33.6,22.4c-5.8,8.5-11,17.3-13.5,27.4
	c-2.8,11-0.9,21.5,3.2,31.8c3.4,8.4-1.5,26.1-1.7,26.9c-0.5,3.4,1.9,5.7,4.1,4.8c2.4-0.9,3.8-4.2,2.6-6.9c-0.7-1.8-1-11.1,0.3-11.4
	c1.8-0.5,2.4,1,3.1,2.3c9.7,11.7,22,19.7,36.6,24c2.3,0.7,2.7,1.6,2.5,3.7c-0.4,4.4-0.7,8.9-0.9,13.3c-0.3,3.9,1.7,6.6,5,8.3
	c1.5,0.8,4,1.6,4.8-1.1c0.7-2.1-0.3-4-2.6-4.3c-2.9-0.3-3.1-2-3-4.3c0.1-2.8,0.4-5.6,0.4-8.5c0.1-1,0.6-4.1,2.5-4.9
	c3.9-0.3,8-0.9,10.9,0.6c2.7,1.4,0.6,13.5,0.5,14.1c-0.3,3.4,2.8,4.9,5.2,6.7c1.9,1.4,4.1,1.6,5.4-0.6c1.3-2.3-0.7-4-2.5-4.3
	c-3.4-0.5-3.7-2.8-3.9-5.3c-0.1-2-0.4-4-0.3-6c0.1-0.5,0.1-1,0.1-1.6c0.1-3.9,2.5-4.3,3.8-4.7c15.8-2.5,29.4-8.6,39.5-21
	c0.1,0.4,0.3,1,0.4,1.9c0.5,4.1-0.2,12.2-0.7,14.7c-0.5,2.4,1.2,4.7,4.4,3.1c3.2-1.6,2.9-7.7,1.8-13.1c-0.9-4.1-2.4-7.5-3.3-9.9
	c0.4-0.5,0.8-1.1,1.1-1.6C166,361.6,168.1,358.2,169.7,354.6z M85.9,347.6c4.8-1.2,10.2-0.4,16.3,0
	C95.4,352.4,90.5,352.1,85.9,347.6z M114.6,364.8c-2.3-2.3-4.9-0.7-8.6-0.1c3.5-2.9,6-3.9,8.9-2c0.4,0.3,0.6,1,0.6,1.5
	C115.6,364.3,114.7,364.8,114.6,364.8z M122.5,347.7c3.2-1.1,12.3-2,15.8-0.6C132.8,351.6,127.6,352.8,122.5,347.7z"/>
</svg>
