<?xml version="1.0" encoding="UTF-8" standalone="no"?>
<svg width="301px" height="98px" viewBox="0 0 301 98" version="1.1" xmlns="http://www.w3.org/2000/svg" xmlns:xlink="http://www.w3.org/1999/xlink" xmlns:sketch="http://www.bohemiancoding.com/sketch/ns">
    <!-- Generator: Sketch 3.3.3 (12081) - http://www.bohemiancoding.com/sketch -->
    <title>unitas_logo copy</title>
    <desc>Created with Sketch.</desc>
    <defs></defs>
    <g id="Page-1" stroke="none" stroke-width="1" fill="none" fill-rule="evenodd" sketch:type="MSPage">
        <g id="unitas_logo" sketch:type="MSLayerGroup">
            <g id="Group" sketch:type="MSShapeGroup">
                <path d="M159.6,68.4 L153.5,85 C153,86.2 152.6,87.5 152.1,88.7 C151.7,89.9 151.3,91 150.9,92.1 L150.8,92.1 C150.4,91 150.1,89.8 149.7,88.7 C149.3,87.5 148.8,86.3 148.3,85 L142.3,68.4 L139,68.4 L149.3,95.5 L152.1,95.5 L162.8,68.4 L159.6,68.4 L159.6,68.4 Z M168.2,68.4 L168.2,68.4 L165.1,68.4 L165.1,95.5 L168.2,95.5 L168.2,68.4 L168.2,68.4 Z M192.4,92.1 L192.4,92.1 C191.9,92.4 191.3,92.6 190.7,92.8 C190,93 189.3,93.2 188.4,93.4 C187.5,93.5 186.4,93.6 185.2,93.6 C183.9,93.6 182.6,93.4 181.4,92.9 C180.2,92.5 179.2,91.8 178.2,90.9 C177.3,90 176.6,88.8 176,87.3 C175.5,85.8 175.2,84 175.2,81.9 L194.6,81.9 C194.6,81.6 194.6,81.3 194.7,81.1 L194.7,80.1 C194.7,79.4 194.6,78.6 194.5,77.7 C194.4,76.8 194.2,75.9 193.9,75 C193.6,74.1 193.2,73.2 192.7,72.3 C192.2,71.4 191.6,70.7 190.8,70 C190,69.3 189.1,68.8 188,68.4 C186.9,68 185.7,67.8 184.2,67.8 C182.4,67.8 180.8,68.2 179.4,68.8 C177.9,69.5 176.7,70.5 175.6,71.8 C174.5,73.1 173.7,74.6 173.1,76.4 C172.5,78.2 172.2,80.2 172.2,82.4 C172.2,84.4 172.5,86.2 173.1,87.9 C173.7,89.6 174.5,91 175.6,92.2 C176.7,93.4 178,94.4 179.6,95 C181.1,95.7 182.9,96 184.9,96 C186.4,96 187.7,95.9 188.8,95.7 C189.9,95.5 190.8,95.3 191.6,95 C192.4,94.7 192.9,94.5 193.3,94.3 L192.4,92.1 L192.4,92.1 Z M175.4,79.5 L175.4,79.5 C175.5,78.7 175.7,77.8 175.9,77 C176.2,76.1 176.5,75.3 177,74.5 C177.4,73.7 178,73 178.6,72.4 C179.2,71.8 180,71.3 180.9,70.9 C181.8,70.5 182.8,70.3 183.9,70.3 C185.1,70.3 186.2,70.5 187,70.9 C187.9,71.3 188.6,71.8 189.2,72.4 C189.8,73.1 190.2,73.8 190.6,74.6 C190.9,75.4 191.2,76.2 191.3,77.1 C191.4,78 191.5,78.8 191.5,79.5 L175.4,79.5 L175.4,79.5 L175.4,79.5 Z M199.6,68.4 L199.6,68.4 L195.2,68.4 L195.2,70.9 L199.6,70.9 L199.6,87.6 C199.6,88.6 199.7,89.7 199.8,90.7 C200,91.7 200.3,92.6 200.7,93.4 C201.1,94.2 201.8,94.9 202.6,95.4 C203.5,95.9 204.6,96.1 206,96.2 C206.8,96.2 207.6,96.1 208.2,96 C208.8,95.9 209.3,95.7 209.8,95.6 L209.5,93.2 C209.2,93.3 208.7,93.4 208.3,93.5 C207.8,93.6 207.2,93.6 206.6,93.6 C205.7,93.6 204.9,93.4 204.4,92.9 C203.8,92.5 203.4,91.8 203.2,91 C202.9,90.2 202.8,89.2 202.8,88 L202.8,70.9 L210.2,70.9 L210.2,68.4 L202.8,68.4 L202.8,62.3 L199.7,63.4 L199.7,68.4 L199.6,68.4 L199.6,68.4 Z M234.5,79.1 L234.5,79.1 C234.5,77.1 234.3,75.5 233.8,74.2 C233.3,72.9 232.8,71.8 232,70.9 C231.3,70.1 230.5,69.4 229.6,69 C228.8,68.5 227.9,68.2 227.2,68.1 C226.4,67.9 225.7,67.8 225.2,67.9 C223.7,67.9 222.4,68.2 221.2,68.6 C220,69.1 219,69.7 218.1,70.5 C217.2,71.3 216.6,72.2 216.1,73.2 L216,73.2 L215.8,68.5 L213,68.5 C213,69.2 213.1,69.9 213.1,70.6 C213.1,71.3 213.1,72 213.2,72.7 L213.2,75.1 L213.2,95.6 L216.3,95.6 L216.3,78.8 C216.3,77.7 216.5,76.7 216.9,75.7 C217.3,74.7 217.9,73.8 218.6,73 C219.3,72.2 220.2,71.6 221.2,71.1 C222.2,70.6 223.2,70.4 224.4,70.4 C225.7,70.4 226.9,70.7 227.8,71.1 C228.7,71.6 229.4,72.3 230,73.1 C230.6,74 231,74.9 231.2,76 C231.4,77.1 231.6,78.2 231.6,79.5 L231.6,95.5 L234.7,95.5 L234.7,79.1 L234.5,79.1 L234.5,79.1 Z M257.3,78.5 L257.3,78.5 C257.3,77.5 257.2,76.4 257.1,75.4 C256.9,74.4 256.7,73.4 256.3,72.5 C255.9,71.6 255.3,70.8 254.6,70.1 C253.9,69.4 253,68.8 251.9,68.4 C250.8,68 249.5,67.8 248,67.8 C247.1,67.8 246.2,67.9 245.3,68 C244.4,68.2 243.5,68.4 242.6,68.8 C241.7,69.1 240.9,69.6 240.1,70.1 L241,72.3 C241.6,71.9 242.3,71.5 243.1,71.2 C243.8,70.9 244.6,70.7 245.4,70.5 C246.2,70.4 247,70.3 247.7,70.3 C249,70.3 250.1,70.5 251,70.9 C251.8,71.3 252.5,71.8 253,72.5 C253.5,73.2 253.8,73.9 254,74.6 C254.2,75.4 254.3,76.1 254.4,76.8 C254.4,77.5 254.5,78.2 254.4,78.7 C250.9,78.7 247.9,79 245.5,79.8 C243.1,80.6 241.3,81.7 240.1,83.2 C238.9,84.7 238.3,86.5 238.3,88.6 C238.3,89.5 238.5,90.5 238.8,91.3 C239.1,92.2 239.6,93 240.3,93.7 C241,94.4 241.8,95 242.8,95.4 C243.8,95.8 244.9,96 246.3,96.1 C247.7,96.1 248.9,95.9 250,95.4 C251.1,95 252,94.4 252.8,93.8 C253.6,93.1 254.2,92.4 254.6,91.7 L254.8,91.7 L255.1,95.5 L258,95.5 C257.9,94.5 257.8,93.4 257.7,92.3 C257.6,91.2 257.6,90.1 257.6,89 L257.6,78.5 L257.3,78.5 L257.3,78.5 Z M254.2,86.8 L254.2,86.8 C254.2,87.2 254.1,87.7 253.9,88.3 C253.7,88.9 253.4,89.5 253.1,90.1 C252.7,90.7 252.2,91.3 251.6,91.9 C251,92.4 250.3,92.9 249.4,93.2 C248.5,93.5 247.5,93.7 246.4,93.7 C245.5,93.7 244.6,93.5 243.9,93.1 C243.1,92.7 242.5,92.1 242,91.3 C241.5,90.5 241.3,89.5 241.3,88.2 C241.3,86.9 241.6,85.9 242.1,85 C242.6,84.2 243.4,83.5 244.2,83 C245.1,82.5 246.1,82.1 247.2,81.8 C248.3,81.5 249.5,81.4 250.7,81.3 C251.9,81.2 253.1,81.2 254.2,81.2 L254.2,86.8 L254.2,86.8 Z M300,79.4 L300,79.4 C300,77.4 299.8,75.7 299.4,74.4 C299,73 298.5,71.9 297.8,71 C297.1,70.1 296.4,69.5 295.6,69 C294.8,68.5 294.1,68.2 293.3,68 C292.5,67.8 291.9,67.7 291.3,67.7 C290,67.7 288.9,67.9 288,68.2 C287,68.5 286.2,69 285.5,69.5 C284.8,70 284.2,70.7 283.6,71.3 C283.1,72 282.7,72.7 282.3,73.4 L282.2,73.4 C281.8,72.3 281.3,71.3 280.5,70.4 C279.8,69.5 278.9,68.9 277.9,68.4 C276.9,67.9 275.8,67.7 274.6,67.7 C273.1,67.7 271.9,67.9 270.8,68.4 C269.7,68.9 268.8,69.5 268,70.3 C267.2,71.1 266.6,72 266,73 L265.9,73 L265.7,68.3 L262.9,68.3 C262.9,69 263,69.7 263,70.4 C263,71.1 263.1,71.8 263.1,72.5 L263.1,74.9 L263.1,95.4 L266.1,95.4 L266.1,78.9 C266.1,77.7 266.3,76.6 266.7,75.6 C267.1,74.6 267.7,73.7 268.4,72.9 C269.1,72.1 269.9,71.5 270.8,71.1 C271.7,70.7 272.6,70.4 273.6,70.4 C274.7,70.4 275.6,70.6 276.4,71 C277.2,71.4 277.9,72 278.4,72.7 C278.9,73.4 279.3,74.3 279.6,75.3 C279.9,76.3 280,77.4 280,78.6 L280,95.6 L283.1,95.6 L283.1,78.3 C283.1,77.3 283.3,76.3 283.7,75.3 C284.1,74.4 284.6,73.5 285.3,72.8 C286,72.1 286.7,71.5 287.6,71.1 C288.5,70.7 289.4,70.5 290.4,70.5 C291.9,70.5 293.2,70.9 294.1,71.6 C295.1,72.4 295.8,73.4 296.3,74.8 C296.8,76.2 297,77.9 297,79.8 L297,95.6 L300.1,95.6 L300.1,79.4 L300,79.4 Z" id="Shape" fill="#1C1D00"></path>
                <path d="M23.7,68.5 L16.3,68.5 L16.3,85.7 C16.3,86.8 16.1,87.7 15.7,88.5 C15.3,89.3 14.7,89.9 14,90.3 C13.3,90.7 12.6,90.9 11.7,90.9 C10.7,90.9 9.9,90.6 9.2,90.1 C8.6,89.5 8.1,88.8 7.8,87.7 C7.5,86.7 7.4,85.5 7.4,84 L7.4,68.5 L0,68.5 L0,85.1 C0,87.9 0.4,90.2 1.1,91.9 C1.8,93.6 2.9,94.9 4.2,95.7 C5.6,96.6 7.1,97 8.9,97 C10,97 10.9,96.9 11.8,96.6 C12.7,96.3 13.4,96 14.1,95.6 C14.8,95.2 15.3,94.7 15.8,94.2 C16.3,93.7 16.7,93.2 16.9,92.8 L17,92.8 L17.4,96.5 L23.9,96.5 C23.9,95.3 23.8,94 23.7,92.6 C23.6,91.2 23.6,89.6 23.6,88 L23.6,68.5 L23.7,68.5 L23.7,68.5 Z M54.3,79.3 L54.3,79.3 C54.3,77.4 54.1,75.7 53.6,74.2 C53.1,72.8 52.5,71.6 51.7,70.7 C50.9,69.8 49.9,69.1 48.8,68.6 C47.7,68.2 46.5,67.9 45.2,67.9 C44.2,67.9 43.3,68 42.4,68.3 C41.5,68.5 40.8,68.9 40.1,69.3 C39.4,69.7 38.8,70.2 38.3,70.7 C37.8,71.2 37.4,71.7 37.1,72.2 L37,72.2 L36.6,68.4 L30.2,68.4 C30.2,69.6 30.3,70.9 30.3,72.3 C30.3,73.7 30.4,75.2 30.4,76.8 L30.4,96.3 L37.8,96.3 L37.8,79.8 C37.8,78.8 38,77.8 38.3,77.1 C38.6,76.4 39,75.8 39.5,75.3 C40,74.9 40.5,74.5 41,74.3 C41.5,74.1 42.1,74 42.6,74 C43.6,74 44.5,74.3 45.1,74.8 C45.7,75.3 46.2,76.1 46.5,77 C46.8,77.9 46.9,78.9 46.9,80.1 L46.9,96.4 L54.3,96.4 L54.3,79.3 L54.3,79.3 L54.3,79.3 Z M68.3,68.5 L68.3,68.5 L60.9,68.5 L60.9,96.4 L68.3,96.4 L68.3,68.5 L68.3,68.5 Z M74.5,86.8 L74.5,86.8 C74.5,87.3 74.5,87.9 74.6,88.6 C74.6,89.3 74.7,90 74.9,90.8 C75.1,91.6 75.3,92.3 75.6,93 C75.9,93.7 76.4,94.4 77,95 C77.6,95.6 78.4,96 79.3,96.4 C80.2,96.7 81.4,96.9 82.7,96.9 C83.8,96.9 84.8,96.8 85.6,96.7 C86.5,96.6 87.1,96.4 87.6,96.2 L87.5,90.5 C87.1,90.6 86.8,90.6 86.4,90.7 C86,90.7 85.6,90.8 85.1,90.8 C84,90.8 83.1,90.4 82.6,89.7 C82.1,88.9 81.8,87.7 81.8,86.1 L81.8,73.9 L88,73.9 L88,68.4 L81.8,68.4 L81.8,61.1 L74.5,63.3 L74.5,86.8 L74.5,86.8 Z M113.4,79.5 L113.4,79.5 C113.4,78 113.2,76.5 112.9,75.1 C112.5,73.7 112,72.5 111.1,71.4 C110.3,70.3 109.2,69.5 107.7,68.8 C106.3,68.2 104.5,67.9 102.3,67.8 C100.8,67.8 99.5,67.9 98.3,68.2 C97.1,68.4 96,68.7 95,69.1 C94,69.5 93.3,69.8 92.6,70.2 L94,75 C94.9,74.4 96,74 97.2,73.6 C98.4,73.3 99.6,73.1 100.9,73.1 C102.2,73.1 103.3,73.3 104,73.7 C104.7,74.1 105.2,74.7 105.5,75.4 C105.8,76.1 105.9,77 105.9,77.9 C103.7,77.9 101.6,78.1 99.8,78.5 C97.9,78.9 96.3,79.6 95,80.4 C93.6,81.3 92.6,82.4 91.8,83.7 C91.1,85 90.7,86.6 90.7,88.4 C90.7,89.5 90.9,90.6 91.3,91.6 C91.7,92.6 92.2,93.5 93,94.3 C93.7,95.1 94.6,95.7 95.6,96.1 C96.6,96.5 97.8,96.8 99.1,96.8 C100.1,96.8 101.1,96.7 102.1,96.4 C103,96.1 103.9,95.7 104.6,95.2 C105.4,94.7 106,94.1 106.6,93.3 L106.7,93.3 L107.2,96.2 L113.9,96.2 C113.8,95.6 113.7,95 113.7,94.3 C113.6,93.6 113.6,92.8 113.6,92 L113.6,89.6 L113.6,79.5 L113.4,79.5 L113.4,79.5 Z M106.2,86.8 L106.2,86.8 C106.2,87.7 106,88.4 105.7,89.1 C105.4,89.7 105,90.2 104.5,90.6 C104,91 103.5,91.2 103,91.4 C102.5,91.6 102,91.6 101.5,91.6 C100.9,91.6 100.3,91.5 99.8,91.2 C99.3,90.9 98.8,90.5 98.5,90 C98.2,89.4 98,88.7 98,87.8 C98,86.8 98.3,86 98.7,85.3 C99.2,84.6 99.8,84.1 100.6,83.8 C101.4,83.4 102.3,83.2 103.2,83 C104.2,82.9 105.2,82.8 106.2,82.8 L106.2,86.8 L106.2,86.8 Z M136.1,69.4 L136.1,69.4 C135.3,69 134.3,68.6 133.1,68.3 C131.9,68 130.6,67.8 129.2,67.8 C127.6,67.8 126.2,68 125,68.5 C123.7,68.9 122.7,69.6 121.8,70.4 C120.9,71.2 120.2,72.1 119.7,73.2 C119.2,74.3 119,75.4 119,76.7 C119,77.7 119.2,78.7 119.7,79.7 C120.2,80.7 120.9,81.6 122,82.5 C123,83.4 124.4,84.2 126.2,84.9 C127.2,85.3 128,85.7 128.6,86.1 C129.2,86.5 129.6,86.9 129.9,87.3 C130.2,87.7 130.3,88.2 130.3,88.8 C130.3,89.7 130,90.4 129.3,90.8 C128.7,91.3 127.7,91.6 126.4,91.6 C125.6,91.6 124.8,91.5 124,91.3 C123.2,91.1 122.4,90.9 121.7,90.6 C121,90.3 120.4,90 119.9,89.7 L118.5,95.1 C119.1,95.5 119.8,95.8 120.7,96.1 C121.5,96.4 122.4,96.6 123.4,96.8 C124.4,97 125.4,97 126.4,97 C128.7,97 130.7,96.6 132.3,95.9 C133.9,95.2 135.2,94.1 136,92.8 C136.9,91.5 137.3,89.9 137.3,88.1 C137.3,86.2 136.7,84.5 135.6,83.1 C134.5,81.7 132.7,80.5 130.4,79.6 C129.3,79.2 128.5,78.8 127.9,78.4 C127.3,78 126.8,77.6 126.6,77.3 C126.3,76.9 126.2,76.5 126.2,75.9 C126.2,75.4 126.3,74.9 126.6,74.5 C126.9,74.1 127.3,73.8 127.8,73.6 C128.3,73.4 128.9,73.3 129.7,73.3 C130.4,73.3 131.1,73.4 131.7,73.5 C132.3,73.6 133,73.8 133.5,74.1 C134.1,74.3 134.5,74.5 134.9,74.8 L136.1,69.4 L136.1,69.4 Z" id="Shape" fill="#1C1D00"></path>
                <path d="M0,23.7 L66.8,0 L133.6,23.7 L133.6,52 L66.8,28.3 L0,52 L0,23.7 Z" id="XMLID_1_" fill="#FFC900"></path>
            </g>
        </g>
    </g>
</svg>